<svg width="18" height="20" viewBox="0 0 18 20" fill="none" xmlns="http://www.w3.org/2000/svg">
<path d="M6.81904 10.686L6.44604 12.1623L6.44504 12.1613C6.14504 12.4336 0.100037 12.6472 0.100037 17.5922C0.100037 18.2759 2.60004 19.3065 8.60004 19.3065C14.6 19.3065 17.1 18.2808 17.1 17.5922C17.1 12.6462 10.575 12.2847 10.472 12.1916L10.012 10.685C10.012 10.685 11.162 10.3843 11.598 8.83947C11.672 8.57498 11.744 8.27433 11.794 7.94812C12.21 7.88249 12.534 7.35349 12.534 6.69912C12.534 6.14271 12.297 5.67644 11.967 5.50991C11.977 4.57048 11.937 3.78778 11.917 3.57619C11.873 3.11285 12 1.78544 11.093 1.60421C10.321 1.4514 10.168 1.87262 10.016 1.84911C10.016 1.84911 9.86304 0.75 8.88004 0.737266C8.88004 0.737266 4.82704 0.159326 4.82704 3.20586C4.80504 3.42431 4.74904 4.37646 4.74504 5.47164C4.37204 5.59213 4.09504 6.09667 4.09504 6.69912C4.09504 7.37014 4.43704 7.91384 4.86704 7.95303C4.91304 8.31058 4.97804 8.63188 5.06304 8.87677C5.44604 10.0454 6.81904 10.686 6.81904 10.686Z" fill="black"/>
</svg>
