<svg width="24" height="24" viewBox="0 0 24 24" fill="none" xmlns="http://www.w3.org/2000/svg">
<path d="M12 3.99902C15.3135 3.99923 18 6.68544 18 9.99902V12.722C18 12.9033 18.0493 13.0811 18.1425 13.2365L20.0913 16.4845C20.4912 17.1511 20.0111 17.999 19.2338 17.999H4.76619C3.9889 17.999 3.50879 17.1511 3.9087 16.4845L5.8575 13.2365C5.95074 13.0811 6 12.9033 6 12.722V9.99902C6 6.68531 8.68629 3.99902 12 3.99902Z" fill="black"/>
<path d="M14 18.999C14 20.1036 13.1046 20.999 12 20.999C10.8954 20.999 10 20.1036 10 18.999H14Z" fill="black"/>
<path d="M10 4.99902C10 3.89445 10.8954 2.99902 12 2.99902C13.1046 2.99902 14 3.89445 14 4.99902L10 4.99902Z" fill="black"/>
<circle cx="17" cy="7" r="5" fill="white"/>
<path d="M14.7 7.4L16.3 9L20.3 5" stroke="black" stroke-width="2" stroke-linecap="round" stroke-linejoin="round"/>
</svg>
