<svg width="10" height="6" viewBox="0 0 10 6" fill="none" xmlns="http://www.w3.org/2000/svg">
<path fill-rule="evenodd" clip-rule="evenodd" d="M1.42906 0.252076C1.3526 0.172091 1.26072 0.108432 1.15897 0.064939C1.05722 0.0214465 0.947715 -0.000976562 0.837061 -0.000976562C0.726408 -0.000976562 0.616901 0.0214465 0.515153 0.064939C0.413405 0.108432 0.321526 0.172091 0.245061 0.252076C0.0880862 0.416366 0.000488281 0.634848 0.000488281 0.862076C0.000488281 1.0893 0.0880862 1.30779 0.245061 1.47208L4.38706 5.74608C4.46603 5.82856 4.56133 5.89366 4.66688 5.93722C4.77243 5.98079 4.88591 6.00185 5.00006 5.99908C5.11405 6.00171 5.22733 5.98058 5.3327 5.93702C5.43807 5.89346 5.53321 5.82843 5.61206 5.74608L9.75506 1.47308C9.91233 1.30874 10.0001 1.09004 10.0001 0.862576C10.0001 0.635108 9.91233 0.416416 9.75506 0.252076C9.6786 0.172091 9.58672 0.108432 9.48497 0.064939C9.38322 0.0214465 9.27372 -0.000976563 9.16306 -0.000976562C9.05241 -0.000976563 8.9429 0.0214465 8.84115 0.064939C8.7394 0.108432 8.64753 0.172091 8.57106 0.252076L5.00006 3.93608L1.42906 0.252076Z" fill="white"/>
</svg>
