<svg width="20" height="14" viewBox="0 0 20 14" fill="none" xmlns="http://www.w3.org/2000/svg">
<path fill-rule="evenodd" clip-rule="evenodd" d="M3.75081 5.96751L19.008 5.96751C19.556 5.96751 20 6.42501 20 6.99792C20 7.56671 19.545 8.02834 19.008 8.02834L3.74681 8.02834L8.54957 12.1809C8.96955 12.5457 9.02655 13.1907 8.66957 13.6307C8.31359 14.0666 7.68562 14.1253 7.26364 13.7605L0.40398 7.82847C0.158992 7.64299 0 7.34105 0 6.99792C0 6.68262 0.139993 6.40025 0.355982 6.21065L0.362983 6.20549L7.26264 0.239485C7.68562 -0.125282 8.31258 -0.0665722 8.66857 0.369293C9.02555 0.808249 8.96855 1.45432 8.54857 1.81806L3.74881 5.96852L3.75081 5.96751Z" fill="#585858"/>
</svg>
