<svg width="24" height="24" viewBox="0 0 24 24" fill="none" xmlns="http://www.w3.org/2000/svg">
<path d="M12 4.00098L12.0001 3.00098H12V4.00098ZM20.0913 16.4865L20.9488 15.972L20.0913 16.4865ZM18.1425 13.2385L19 12.724L18.1425 13.2385ZM12 4.00098L11.9999 5.00098C14.7613 5.00115 17 7.23974 17 10.001H18H19C19 6.13505 15.8658 3.00121 12.0001 3.00098L12 4.00098ZM18 10.001H17V12.724H18H19V10.001H18ZM18.1425 13.2385L17.285 13.753L19.2338 17.001L20.0913 16.4865L20.9488 15.972L19 12.724L18.1425 13.2385ZM19.2338 18.001V17.001H4.76619V18.001V19.001H19.2338V18.001ZM3.9087 16.4865L4.76619 17.001L6.71499 13.753L5.85749 13.2385L5 12.724L3.0512 15.972L3.9087 16.4865ZM6 12.724H7V10.001H6H5V12.724H6ZM6 10.001H7C7 7.23955 9.23858 5.00098 12 5.00098V4.00098V3.00098C8.13401 3.00098 5 6.13498 5 10.001H6ZM5.85749 13.2385L6.71499 13.753C6.90148 13.4422 7 13.0865 7 12.724H6H5L5 12.724L5.85749 13.2385ZM4.76619 18.001V17.001H4.76619L3.9087 16.4865L3.0512 15.972C2.25138 17.305 3.2116 19.001 4.76619 19.001V18.001ZM20.0913 16.4865L19.2338 17.001L19.2338 17.001V18.001V19.001C20.7884 19.001 21.7486 17.305 20.9488 15.972L20.0913 16.4865ZM18 12.724H17C17 13.0865 17.0985 13.4422 17.285 13.753L18.1425 13.2385L19 12.724H18Z" fill="black"/>
<path d="M14 20.001C14 21.1055 13.1046 22.001 12 22.001C10.8954 22.001 10 21.1055 10 20.001H14Z" fill="black"/>
<path d="M10 4.00098C10 2.89641 10.8954 2.00098 12 2.00098C13.1046 2.00098 14 2.89641 14 4.00098L10 4.00098Z" fill="black"/>
</svg>
