<svg width="20" height="20" viewBox="0 0 20 20" fill="none" xmlns="http://www.w3.org/2000/svg">
<path d="M16.48 16.5388H19M2.68 10.002L1 10.046M2.68 10.002C2.68 11.3274 3.75451 12.402 5.08 12.402C6.40548 12.402 7.48 11.3274 7.48 10.002C7.48 8.67647 6.40548 7.60195 5.08 7.60195C3.75451 7.60195 2.68 8.67647 2.68 10.002ZM8.16898 10.0461H19M10.801 3.55319L1 3.55319M19 3.55319H16.48M1 16.5388H10.801M15.88 16.602C15.88 17.9274 14.8055 19.002 13.48 19.002C12.1545 19.002 11.08 17.9274 11.08 16.602C11.08 15.2765 12.1545 14.202 13.48 14.202C14.8055 14.202 15.88 15.2765 15.88 16.602ZM15.88 3.40195C15.88 4.72744 14.8055 5.80195 13.48 5.80195C12.1545 5.80195 11.08 4.72744 11.08 3.40195C11.08 2.07647 12.1545 1.00195 13.48 1.00195C14.8055 1.00195 15.88 2.07647 15.88 3.40195Z" stroke="black" stroke-width="2" stroke-linecap="round"/>
</svg>
