<svg width="10" height="6" viewBox="0 0 10 6" fill="none" xmlns="http://www.w3.org/2000/svg">
<path fill-rule="evenodd" clip-rule="evenodd" d="M1.42931 0.252198C1.35284 0.172213 1.26096 0.108554 1.15921 0.0650611C1.05747 0.0215686 0.947959 -0.000854492 0.837305 -0.000854492C0.726652 -0.000854492 0.617145 0.0215686 0.515397 0.0650611C0.413649 0.108554 0.32177 0.172213 0.245305 0.252198C0.0883303 0.416488 0.000732422 0.63497 0.000732422 0.862198C0.000732422 1.08943 0.0883303 1.30791 0.245305 1.4722L4.38731 5.7462C4.46627 5.82868 4.56157 5.89378 4.66712 5.93734C4.77268 5.98091 4.88615 6.00197 5.00031 5.9992C5.11429 6.00183 5.22758 5.9807 5.33295 5.93714C5.43831 5.89358 5.53345 5.82855 5.61231 5.7462L9.75531 1.4732C9.91257 1.30886 10.0004 1.09016 10.0004 0.862698C10.0004 0.63523 9.91257 0.416538 9.75531 0.252198C9.67884 0.172213 9.58696 0.108554 9.48521 0.0650611C9.38346 0.0215686 9.27396 -0.000854492 9.16331 -0.000854492C9.05265 -0.000854492 8.94315 0.0215686 8.8414 0.0650611C8.73965 0.108554 8.64777 0.172213 8.57131 0.252198L5.00031 3.9362L1.42931 0.252198Z" fill="#8A8A8A"/>
</svg>
