<svg width="21" height="16" viewBox="0 0 21 16" fill="none" xmlns="http://www.w3.org/2000/svg">
<path fill-rule="evenodd" clip-rule="evenodd" d="M2.79505 0H18.805C19.907 0 20.8 0.895019 20.8 1.99402V14.006C20.8 15.106 19.898 16 18.805 16H2.79505C1.69305 16 0.800049 15.105 0.800049 14.006V1.99402C0.800049 0.894019 1.70205 0 2.79505 0ZM17.578 4.04297C17.836 3.83797 17.875 3.46804 17.666 3.21704C17.456 2.96504 17.079 2.92698 16.822 3.13098L10.8 7.91797L4.77805 3.13196C4.52105 2.92896 4.14305 2.96699 3.93405 3.21899C3.72405 3.46899 3.76405 3.83904 4.02205 4.04504L7.92205 7.14502L4.73205 11.048C4.52405 11.301 4.56605 11.671 4.82505 11.873C5.08505 12.077 5.46205 12.036 5.66905 11.783L8.85305 7.88696L10.421 9.13196C10.641 9.30696 10.957 9.30696 11.177 9.13196L12.745 7.88599L15.93 11.782C16.138 12.035 16.516 12.0759 16.775 11.8719C17.035 11.6719 17.075 11.302 16.869 11.048L13.676 7.146L17.576 4.04602L17.578 4.04297Z" fill="black"/>
</svg>
