<svg width="130" height="26" viewBox="0 0 130 26" fill="none" xmlns="http://www.w3.org/2000/svg">
<path d="M22.4293 13.154C22.4293 19.3587 17.4072 24.3907 11.2146 24.3907C5.02209 24.3907 0 19.3587 0 13.154C0 6.94931 5.02209 1.91736 11.2146 1.91736C17.4072 1.91736 22.4293 6.94658 22.4293 13.154Z" fill="white"/>
<path d="M11.2174 1.91736C5.18001 1.91736 0.258636 6.69839 0.0136566 12.6849C1.72308 11.7876 3.28006 12.4258 4.04494 13.1322C5.00308 14.0158 5.10108 15.2759 4.98676 16.4432C7.08814 16.1595 7.72236 18.5268 7.67337 19.1624C7.65432 19.416 7.63526 19.446 7.57265 19.4814C7.52911 19.506 7.27868 19.5442 7.26779 19.3096C7.24329 18.756 6.41853 17.2014 5.16913 17.455C4.98403 17.4932 4.88331 17.6296 4.77988 17.7659C4.64378 17.9841 4.55395 18.216 4.49135 18.4587C4.35797 18.8187 4.14566 19.116 3.79996 19.1433C3.32089 19.1787 3.07319 18.7587 3.03236 18.445C3.02419 18.3933 3.02419 18.1969 3.03236 18.1478C3.10313 17.4278 3.57404 16.9041 3.99323 16.6587C4.10482 15.8622 3.84624 13.934 1.82379 13.9531C1.23311 13.9586 0.604331 14.3186 0.155201 14.9977C1.03169 20.3269 5.65092 24.3934 11.2174 24.3934C17.41 24.3934 22.4321 19.3614 22.4321 13.1567C22.4321 6.95203 17.41 1.91736 11.2174 1.91736ZM9.36643 13.7077C9.2957 14.095 9.1514 15.224 9.1296 15.9414C9.11063 16.7732 9.15689 17.8287 8.75131 17.4059C8.49268 17.1359 8.26401 16.6041 8.19053 16.0504C8.11705 15.4968 7.84213 13.5167 8.31036 11.9267C8.41379 11.5748 8.74582 11.2421 9.48076 11.1822C11.2637 11.0321 12.5893 11.0267 14.1626 11.3213C14.4757 11.3812 15.2188 11.5312 15.5644 11.744C15.6625 11.804 15.627 11.8912 15.491 11.9294C14.1708 12.3085 12.4124 12.1067 10.8119 12.3467C10.0878 12.4558 9.53793 12.764 9.36376 13.7104L9.36643 13.7077ZM13.5502 17.755C13.4821 18.1423 13.2589 18.4996 12.9323 18.7342C12.69 18.906 12.4096 19.0151 12.0858 19.026H11.9469C11.4896 19.0042 11.084 18.8024 10.79 18.4315C10.5614 18.1342 10.4662 17.8451 10.4253 17.4905C10.4035 17.1223 10.5206 16.8032 10.7166 16.5387C10.8173 16.4022 10.9507 16.2795 11.0813 16.1841C11.1276 16.1541 11.1875 16.1214 11.231 16.0968C11.3535 16.0232 11.4978 15.9714 11.6366 15.9414C11.7374 15.9223 11.8408 15.9032 11.955 15.9032C12.3199 15.9004 12.6465 16.0013 12.9187 16.2005C13.0521 16.2904 13.1773 16.4159 13.2752 16.5495C13.3297 16.6205 13.3787 16.6995 13.4168 16.7841C13.493 16.9314 13.542 17.1005 13.5665 17.2778C13.5883 17.4359 13.5774 17.6077 13.5502 17.755ZM18.1749 17.8833C18.164 17.9786 18.1367 18.0714 18.104 18.1587C18.0551 18.3059 17.968 18.445 17.8618 18.5623C17.6359 18.816 17.3446 18.9741 17.0099 19.0178C16.9663 19.026 16.9255 19.026 16.8765 19.026C16.8356 19.0287 16.7894 19.026 16.7458 19.026C16.7186 19.026 16.6913 19.0178 16.656 19.0178C16.6397 19.0151 16.6178 19.0096 16.5988 19.0096C16.5879 19.0069 16.5743 19.0014 16.5607 18.9987C16.5117 18.9932 16.4681 18.9769 16.4273 18.966C16.2858 18.925 16.1633 18.8623 16.0463 18.7778C15.951 18.7123 15.8584 18.6223 15.7822 18.5296C15.6353 18.3551 15.5318 18.145 15.4937 17.9132C15.4773 17.8532 15.4747 17.7932 15.4719 17.7251C15.4583 17.4469 15.5318 17.1986 15.6597 16.9832C15.8067 16.7323 16.049 16.5413 16.3103 16.4486C16.3566 16.4295 16.4083 16.4132 16.4572 16.405C16.6996 16.3586 17.0425 16.3859 17.3065 16.4896C17.4617 16.5359 17.5978 16.6287 17.7258 16.7323C18.0605 17.0077 18.2429 17.4196 18.1776 17.8833H18.1749ZM19.6692 17.8586C19.563 17.7714 19.544 16.6778 19.4514 16.1077C19.3017 15.1777 17.2303 15.7231 16.6097 14.725C16.4518 14.4713 16.1469 13.5113 16.2259 12.794C16.2395 12.6603 16.2668 12.6085 16.3457 12.6085C16.5906 12.6085 17.0752 13.6777 17.4671 14.1304C17.595 14.2777 17.7611 14.3213 17.87 14.3513C18.6077 14.5531 19.1411 14.6595 19.691 14.845C20.2708 15.0386 20.3579 15.3795 20.3988 15.5295C20.4668 15.7668 20.4423 16.7487 19.9823 17.6678C19.8925 17.8478 19.7536 17.9323 19.6665 17.8614L19.6692 17.8586Z" fill="#DC0814"/>
<path fill-rule="evenodd" clip-rule="evenodd" d="M50.4715 5.9539C53.5337 5.9539 55.3384 7.94486 55.3384 11.1931V14.6923C55.3384 17.646 53.8141 20.0106 50.4715 20.0106C49.1513 20.0106 48.155 19.266 47.5507 18.5705V25.9999H44.4368V6.09572H47.5507V7.07484C48.2938 6.40937 49.2166 5.95117 50.4715 5.95117V5.9539ZM49.9108 8.64578C48.4 8.64578 47.5589 9.81578 47.5426 11.1276V14.7496C47.5426 16.1296 48.3647 17.3187 49.9162 17.3187C50.9152 17.3187 52.2598 16.9778 52.2598 14.7496V11.2122C52.2598 9.59218 51.563 8.64578 49.9108 8.64578Z" fill="white"/>
<path fill-rule="evenodd" clip-rule="evenodd" d="M63.5209 5.95386H62.971C59.1439 5.95386 57.7503 8.39755 57.7503 11.1931V14.8041C57.7503 17.646 59.1984 20.0106 62.9792 20.0106H63.5127C67.3072 20.0106 68.7417 17.646 68.7417 14.8041V11.1931C68.7417 8.40031 67.3426 5.95386 63.5209 5.95386ZM65.6631 14.8013C65.6631 17.0759 64.3783 17.3214 63.3466 17.3214H63.148C61.4848 17.3214 60.8316 16.4896 60.8316 14.8013V11.1821C60.8316 8.98669 62.0374 8.643 63.148 8.643H63.3466C64.852 8.643 65.6631 9.34939 65.6631 11.1821V14.8013Z" fill="white"/>
<path d="M28.6791 17.0022C29.3924 17.0022 29.7952 16.5168 29.8877 15.5432C30.0701 13.3804 30.3096 10.2357 30.6009 6.10925H40.2586V16.9996H41.742V22.7079H38.5301V19.8605H31.1807V22.7079H27.9688V16.9996H28.6819L28.6791 17.0022ZM32.754 16.3559C32.6887 16.5849 32.6316 16.7459 32.5744 16.8386L32.4655 17.005H37.0711V8.97296H33.3719C33.1704 11.7957 33.0044 14.024 32.8765 15.655C32.8575 15.8922 32.8166 16.1268 32.754 16.3559Z" fill="white"/>
<path d="M87.142 19.8631H84.0229V13.4975L84.1504 10.0884L80.7428 19.8659H77.637L74.2454 10.0884L74.3761 13.4975V19.8631H71.2566V6.09827H75.7751L79.1913 15.8976L82.6348 6.09827H87.1396V19.8631H87.142Z" fill="white"/>
<path d="M96.0079 18.9171C95.2861 18.1398 94.9268 17.0025 94.9268 15.5107V7.0286C94.9268 5.3131 95.1044 4.04762 95.4637 3.22942C95.8198 2.41121 96.3858 1.82756 97.165 1.47846C97.576 1.30391 98.0169 1.16209 98.4844 1.05027C98.9527 0.938451 99.2337 0.875717 99.329 0.859354C99.9467 0.731171 100.467 0.608442 100.886 0.488439C101.305 0.368435 101.746 0.207522 102.206 0.000244141L102.516 1.45392C102.103 1.66119 101.688 1.81938 101.267 1.9312C100.848 2.04302 100.352 2.15484 99.7804 2.26394C99.304 2.35939 98.9123 2.44667 98.6047 2.52576C98.2946 2.60486 98.0136 2.71668 97.7609 2.8585C97.3168 3.09578 96.9906 3.48578 96.7863 4.0258C96.5796 4.56582 96.4763 5.34311 96.4763 6.36041V8.31322C96.7782 7.99681 97.2433 7.70498 97.878 7.44316C98.5119 7.18133 99.0972 7.05042 99.6358 7.05042C100.698 7.05042 101.506 7.45953 102.061 8.27771C102.617 9.0959 102.895 10.4433 102.895 12.3142V14.7197C102.895 16.7379 102.546 18.1343 101.849 18.9144C101.152 19.6916 100.121 20.0816 98.7573 20.0816C97.6463 20.0816 96.7322 19.6916 96.0104 18.9144L96.0079 18.9171ZM100.597 17.998C100.954 17.4825 101.134 16.5416 101.134 15.1752V11.8642C101.134 10.5305 100.995 9.60046 100.717 9.07681C100.439 8.55315 99.9604 8.29136 99.2797 8.29136C98.8986 8.29136 98.4521 8.40316 97.9353 8.62408C97.4202 8.84776 96.9963 9.09322 96.6636 9.36321V15.557C96.6636 16.6698 96.8622 17.4825 97.2571 17.998C97.6543 18.5134 98.1994 18.7725 98.8986 18.7725C99.6746 18.7725 100.243 18.5134 100.6 17.998H100.597Z" fill="#DC0814"/>
<path d="M105.412 19.2006C104.906 18.6143 104.653 17.8833 104.653 17.0079C104.653 16.1324 104.83 15.3551 105.19 14.7687C105.546 14.1823 106.095 13.656 106.842 13.1951C107.587 12.7341 108.704 12.1696 110.195 11.5041V10.5277C110.195 9.67132 110.143 9.00312 110.04 8.52586C109.937 8.04857 109.762 7.70765 109.517 7.50037C109.272 7.29309 108.926 7.19218 108.483 7.19218C107.198 7.19218 106.556 7.97766 106.556 9.55132V10.0287L104.843 10.004C104.86 8.59135 105.159 7.54946 105.747 6.88399C106.332 6.21579 107.277 5.88306 108.575 5.88306C109.778 5.88306 110.638 6.24852 111.156 6.97945C111.67 7.71038 111.929 8.86134 111.929 10.435V17.1279C111.929 17.5725 111.94 18.0797 111.964 18.6525C111.988 19.2252 112.016 19.6288 112.049 19.8688H110.503L110.241 17.9625C110.034 18.5652 109.683 19.0698 109.182 19.4762C108.684 19.8798 108.093 20.0843 107.41 20.0843C106.586 20.0843 105.921 19.7898 105.412 19.2034V19.2006ZM109.253 18.1179C109.643 17.7934 109.955 17.4061 110.192 16.9616V12.6742C109.115 13.2469 108.333 13.6914 107.851 14.0078C107.366 14.3242 107.002 14.6788 106.757 15.0688C106.512 15.4588 106.389 15.9633 106.389 16.5824C106.389 17.2643 106.536 17.7743 106.83 18.107C107.124 18.4397 107.5 18.6061 107.96 18.6061C108.42 18.6061 108.867 18.4425 109.256 18.1179H109.253Z" fill="#DC0814"/>
<path d="M113.987 16.0097H115.533C115.533 17.8998 116.175 18.8462 117.459 18.8462C118.126 18.8462 118.6 18.6006 118.886 18.107C119.172 17.6161 119.313 16.9015 119.313 15.9633C119.313 15.0251 119.095 14.4006 118.66 13.986C118.225 13.5742 117.484 13.3669 116.436 13.3669V12.0796C117.514 12.0796 118.263 11.8886 118.682 11.5068C119.101 11.125 119.311 10.5305 119.311 9.7204C119.311 8.95681 119.147 8.34581 118.823 7.88493C118.499 7.424 118.034 7.19491 117.433 7.19491C116.085 7.19491 115.413 8.02948 115.413 9.69586H113.891C113.891 7.154 115.089 5.88306 117.481 5.88306C118.606 5.88306 119.45 6.24034 120.013 6.95491C120.576 7.66947 120.856 8.5586 120.856 9.62225C120.856 10.5604 120.634 11.2832 120.19 11.7905C119.746 12.3005 119.199 12.6005 118.549 12.6959C119.278 12.9032 119.852 13.2523 120.272 13.7432C120.691 14.2342 120.9 15.0388 120.9 16.1487C120.9 17.4033 120.598 18.377 119.996 19.067C119.395 19.757 118.529 20.1034 117.405 20.1034C115.122 20.1034 113.981 18.737 113.981 16.0042L113.987 16.0097Z" fill="#DC0814"/>
<path d="M123.367 19.2006C122.86 18.6143 122.607 17.8833 122.607 17.0079C122.607 16.1324 122.784 15.3551 123.143 14.7687C123.5 14.1823 124.05 13.656 124.796 13.1951C125.541 12.7341 126.657 12.1696 128.149 11.5041V10.5277C128.149 9.67132 128.098 9.00312 127.994 8.52586C127.891 8.04857 127.717 7.70765 127.471 7.50037C127.226 7.29309 126.881 7.19218 126.437 7.19218C125.152 7.19218 124.51 7.97766 124.51 9.55132V10.0287L122.798 10.004C122.814 8.59135 123.113 7.54946 123.701 6.88399C124.286 6.21579 125.231 5.88306 126.53 5.88306C127.733 5.88306 128.593 6.24852 129.11 6.97945C129.625 7.71038 129.883 8.86134 129.883 10.435V17.1279C129.883 17.5725 129.894 18.0797 129.918 18.6525C129.943 19.2252 129.97 19.6288 130.003 19.8688H128.457L128.195 17.9625C127.989 18.5652 127.637 19.0698 127.137 19.4762C126.639 19.8798 126.048 20.0843 125.364 20.0843C124.54 20.0843 123.875 19.7898 123.367 19.2034V19.2006ZM127.207 18.1179C127.596 17.7934 127.91 17.4061 128.146 16.9616V12.6742C127.068 13.2469 126.287 13.6914 125.805 14.0078C125.321 14.3242 124.956 14.6788 124.711 15.0688C124.467 15.4588 124.344 15.9633 124.344 16.5824C124.344 17.2643 124.491 17.7743 124.785 18.107C125.079 18.4397 125.454 18.6061 125.914 18.6061C126.375 18.6061 126.821 18.4425 127.21 18.1179H127.207Z" fill="#DC0814"/>
</svg>
