<svg width="18" height="18" viewBox="0 0 18 18" fill="none" xmlns="http://www.w3.org/2000/svg">
<path d="M5.24805 0.232423C5.70984 0.035579 6.22912 0.0194628 6.70215 0.187501L7 0.292969L11.9668 2.05859L15.9111 0.375977L16.0977 0.310548C17.0338 0.0461954 17.9999 0.747238 18 1.75586V14.2051C18 15.0062 17.522 15.7305 16.7852 16.0449L13 17.6592L12.751 17.7656C12.2891 17.9623 11.7698 17.9778 11.2969 17.8096L11 17.7041L6.03223 15.9385L2.08887 17.6221C1.16117 18.0179 0.137051 17.4042 0.0126953 16.4395L0 16.2422V3.79297C0 2.9918 0.47798 2.26759 1.21484 1.95313L5 0.337891L5.24805 0.232423ZM7 14.1602L11 15.582V3.83691L7 2.41504V14.1602ZM2 3.79297V15.4844L5 14.2051V2.5127L2 3.79297ZM13 3.79199V15.4844L16 14.2051V2.5127L13 3.79199Z" fill="white"/>
</svg>
