<svg width="20" height="20" viewBox="0 0 20 20" fill="none" xmlns="http://www.w3.org/2000/svg">
<path d="M18.2549 5.29688C19.3856 5.48312 20.1555 6.57254 19.9736 7.73047L18.3271 18.2129C18.1453 19.3707 17.0807 20.1587 15.9502 19.9727L5.71387 18.2871C4.81386 18.1387 4.14446 17.4169 4 16.5449H12.833C14.8372 16.5449 16.4619 14.8805 16.4619 12.8281V5L18.2549 5.29688Z" fill="black"/>
<path fill-rule="evenodd" clip-rule="evenodd" d="M12.7969 0C13.9748 0 14.9297 0.954888 14.9297 2.13281V12.7969C14.9297 13.9748 13.9748 14.9297 12.7969 14.9297H2.13281C0.954888 14.9297 0 13.9748 0 12.7969V2.13281C2.71183e-05 0.954905 0.954905 2.71867e-05 2.13281 0H12.7969ZM7.64258 3.19922C7.40695 3.19927 7.18128 3.29334 7.01465 3.45996C6.84804 3.62659 6.75393 3.85224 6.75391 4.08789V6.75391H4.08789C3.85224 6.75393 3.62659 6.84804 3.45996 7.01465C3.29334 7.18127 3.19927 7.40695 3.19922 7.64258C3.19922 7.87827 3.2933 8.10482 3.45996 8.27148C3.62657 8.43791 3.85239 8.53122 4.08789 8.53125H6.75391V11.1973C6.75391 11.4329 6.84799 11.6595 7.01465 11.8262C7.18125 11.9927 7.40707 12.0859 7.64258 12.0859C7.87827 12.0859 8.10482 11.9929 8.27148 11.8262C8.43812 11.6595 8.53125 11.4329 8.53125 11.1973V8.53125H11.1973C11.4329 8.53125 11.6595 8.43812 11.8262 8.27148C11.9929 8.10482 12.0859 7.87827 12.0859 7.64258C12.0859 7.40707 11.9927 7.18124 11.8262 7.01465C11.6595 6.84799 11.4329 6.75391 11.1973 6.75391H8.53125V4.08789C8.53122 3.85239 8.43791 3.62657 8.27148 3.45996C8.10482 3.2933 7.87827 3.19922 7.64258 3.19922Z" fill="black"/>
</svg>
