<svg width="17" height="17" viewBox="0 0 17 17" fill="none" xmlns="http://www.w3.org/2000/svg">
<path fill-rule="evenodd" clip-rule="evenodd" d="M6.91045 11.9289L2.22318 16.6157C1.70295 17.1333 0.890086 17.1229 0.381561 16.6157C-0.129566 16.1059 -0.125664 15.2841 0.384162 14.7756L5.07144 10.0875C3.3989 7.56466 3.67462 4.1289 5.89991 1.90384C8.43863 -0.634615 12.5563 -0.634615 15.095 1.90384C17.635 4.4436 17.635 8.56209 15.095 11.098C12.871 13.3243 9.43747 13.6013 6.91045 11.9289ZM7.73892 9.26303C6.21334 7.73761 6.21334 5.26808 7.73892 3.74397C9.26059 2.22245 11.7317 2.22245 13.2534 3.74397C14.7789 5.26938 14.7789 7.73891 13.2534 9.26303C11.7317 10.7871 9.26059 10.7871 7.73892 9.26303Z" fill="#C3C3C3"/>
</svg>
