<svg width="19" height="20" viewBox="0 0 19 20" fill="none" xmlns="http://www.w3.org/2000/svg">
<path d="M7.15488 0.754883C11.021 0.754883 14.1548 3.8888 14.1549 7.75488C14.1549 9.23792 13.6885 10.6185 12.8941 11.7549H13.1549C13.2875 11.7549 13.4146 11.8076 13.5084 11.9014L18.4986 16.9014C18.6935 17.0967 18.6937 17.4133 18.4986 17.6084L17.0084 19.0986C16.8133 19.2938 16.4967 19.2936 16.3014 19.0986L11.3014 14.1084C11.2076 14.0146 11.1549 13.8875 11.1549 13.7549V13.4932C10.0184 14.2878 8.63814 14.7549 7.15488 14.7549C3.28873 14.7549 0.154877 11.621 0.154877 7.75488C0.154943 3.8888 3.28878 0.754883 7.15488 0.754883ZM7.15488 3.75488C4.94106 3.75488 3.15494 5.54108 3.15488 7.75488C3.15488 9.96874 4.94102 11.7549 7.15488 11.7549C9.36873 11.7549 11.1549 9.96874 11.1549 7.75488C11.1548 5.54108 9.36869 3.75488 7.15488 3.75488Z" fill="#DB001A"/>
</svg>
