<svg width="14" height="14" viewBox="0 0 14 14" fill="none" xmlns="http://www.w3.org/2000/svg">
<path fill-rule="evenodd" clip-rule="evenodd" d="M5.31338 9.173L1.70938 12.777C1.30938 13.175 0.684378 13.167 0.293378 12.777C-0.099622 12.385 -0.0966221 11.753 0.295378 11.362L3.89938 7.757C2.61338 5.817 2.82538 3.175 4.53638 1.464C6.48838 -0.488 9.65438 -0.488 11.6064 1.464C13.5594 3.417 13.5594 6.584 11.6064 8.534C9.89638 10.246 7.25638 10.459 5.31338 9.173ZM5.95038 7.123C4.77738 5.95 4.77738 4.051 5.95038 2.879C7.12038 1.709 9.02038 1.709 10.1904 2.879C11.3634 4.052 11.3634 5.951 10.1904 7.123C9.02038 8.295 7.12038 8.295 5.95038 7.123Z" fill="#8A8A8A"/>
</svg>
