<svg width="20" height="18" viewBox="0 0 20 18" fill="none" xmlns="http://www.w3.org/2000/svg">
<path fill-rule="evenodd" clip-rule="evenodd" d="M15.869 10.23C15.819 10.38 15.569 10.59 15.409 10.6L7.38902 11.4C7.32902 11.41 7.22902 11.34 7.21902 11.29L5.57902 5H17.599L15.859 10.23H15.869ZM18.999 3H5.04902L4.46902 0.750002C4.41352 0.535054 4.28808 0.344685 4.11246 0.208894C3.93683 0.0731037 3.72102 -0.000387791 3.49902 1.53895e-06H0.999023C0.733807 1.53895e-06 0.479453 0.105358 0.291917 0.292895C0.10438 0.480431 -0.000976562 0.734785 -0.000976562 1C-0.000976562 1.26522 0.10438 1.51957 0.291917 1.70711C0.479453 1.89464 0.733807 2 0.999023 2H2.72902L5.27902 11.8C5.41732 12.2961 5.72526 12.7279 6.14919 13.0203C6.57313 13.3126 7.0862 13.447 7.59902 13.4L15.599 12.6C16.549 12.5 17.459 11.77 17.759 10.87L19.949 4.32C19.9999 4.16936 20.0141 4.00875 19.9905 3.8515C19.9669 3.69426 19.9061 3.54491 19.8133 3.41586C19.7204 3.2868 19.5981 3.18175 19.4564 3.10943C19.3148 3.0371 19.158 2.99959 18.999 3ZM7.49902 18C7.89685 18 8.27838 17.842 8.55968 17.5607C8.84099 17.2794 8.99902 16.8978 8.99902 16.5C8.99902 16.1022 8.84099 15.7206 8.55968 15.4393C8.27838 15.158 7.89685 15 7.49902 15C7.1012 15 6.71967 15.158 6.43836 15.4393C6.15706 15.7206 5.99902 16.1022 5.99902 16.5C5.99902 16.8978 6.15706 17.2794 6.43836 17.5607C6.71967 17.842 7.1012 18 7.49902 18ZM15.499 18C15.8968 18 16.2784 17.842 16.5597 17.5607C16.841 17.2794 16.999 16.8978 16.999 16.5C16.999 16.1022 16.841 15.7206 16.5597 15.4393C16.2784 15.158 15.8968 15 15.499 15C15.1012 15 14.7197 15.158 14.4384 15.4393C14.1571 15.7206 13.999 16.1022 13.999 16.5C13.999 16.8978 14.1571 17.2794 14.4384 17.5607C14.7197 17.842 15.1012 18 15.499 18Z" fill="#585858"/>
</svg>
